<svg viewBox="0 0 800 600" xml:space="preserve">
<g class="svg-js">
  <polygon class="js1" points="344.6,362 361.5,341.6 310.8,327.5"></polygon>
  <polygon class="js2" points="300.4,333.1 344.6,362 310.8,327.5"></polygon>
  <polygon class="js3" points="310.8,327.5 361.5,341.6 317.7,317"></polygon>
  <polygon class="js4" points="287.2,334.7 293.2,377.9 300.4,333.1"></polygon>
  <polygon class="js5" points="293.2,377.9 320.8,374 300.4,333.1"></polygon>
  <polygon class="js6" points="226.3,357.2 256.5,372.8 248.5,320.6"></polygon>
  <polygon class="js7" points="248.5,320.6 256.5,372.8 268.6,331.7"></polygon>
  <polygon class="js8" points="268.6,331.7 256.5,372.8 287.2,334.7"></polygon>
  <polygon class="js9" points="256.5,372.8 293.2,377.9 287.2,334.7"></polygon>
  <polygon class="js10" points="320.8,374 344.6,362 300.4,333.1"></polygon>
  <polygon class="js11" points="367.9,312.2 367.9,169.4 320.2,300.5"></polygon>
  <polygon class="js12" points="361.5,341.6 367.9,312.2 317.7,317"></polygon>
  <polygon class="js13" points="320.2,300.5 367.9,169.4 320.2,169.4"></polygon>
  <polygon class="js14" points="317.7,317 367.9,312.2 320.2,300.5"></polygon>
  <polygon class="js15" points="423,268 441.7,280 481,246.1"></polygon>
  <polygon class="js16" points="466.9,240.2 423,268 481,246.1"></polygon>
  <polygon class="js17" points="467.2,288.8 489.3,295.4 534.1,264.7"></polygon>
  <polygon class="js18" points="478.9,334.7 512.4,373.7 495.4,332.9"></polygon>
  <polygon class="js19" points="480.4,377.6 512.4,373.7 478.9,334.7"></polygon>
  <polygon class="js20" points="512.4,373.7 538.8,362 495.4,332.9"></polygon>
  <polygon class="js21" points="552.5,279.4 489.3,295.4 561.1,296.5"></polygon>
  <polygon class="js22" points="495.4,332.9 538.8,362 506,328.3"></polygon>
  <polygon class="js23" points="452,329.8 458.4,376.4 478.9,334.7"></polygon>
  <polygon class="js24" points="425.5,314.3 418.2,363.4 452,329.8"></polygon>
  <polygon class="js25" points="398.8,349.4 418.2,363.4 425.5,314.3"></polygon>
  <polygon class="js26" points="437.8,372.1 458.4,376.4 452,329.8"></polygon>
  <polygon class="js27" points="538.8,362 556.6,342.7 506,328.3"></polygon>
  <polygon class="js28" points="418.2,363.4 437.8,372.1 452,329.8"></polygon>
  <polygon class="js29" points="458.4,376.4 480.4,377.6 478.9,334.7"></polygon>
  <polygon class="js30" points="511.8,322.1 556.6,342.7 563.2,315.5"></polygon>
  <polygon class="js31" points="506,328.3 556.6,342.7 511.8,322.1"></polygon>
  <polygon class="js32" points="561.1,296.5 511.2,307.9 563.2,315.5"></polygon>
  <polygon class="js33" points="511.2,307.9 513.4,315.8 563.2,315.5"></polygon>
  <polygon class="js34" points="513.4,315.8 511.8,322.1 563.2,315.5"></polygon>
  <polygon class="js35" points="503.5,301.4 511.2,307.9 561.1,296.5"></polygon>
  <polygon class="js36" points="489.3,295.4 503.5,301.4 561.1,296.5"></polygon>
  <polygon class="js37" points="441.7,280 467.2,288.8 502.3,252.5"></polygon>
  <polygon class="js38" points="502.3,252.5 467.2,288.8 534.1,264.7"></polygon>
  <polygon class="js39" points="481,246.1 441.7,280 502.3,252.5"></polygon>
  <polygon class="js40" points="534.1,264.7 489.3,295.4 552.5,279.4"></polygon>
  <polygon class="js41" points="518.7,170.6 483.1,167.3 507,213.2"></polygon>
  <polygon class="js42" points="555.1,186.5 518.7,170.6 533.8,224.9"></polygon>
  <polygon class="js43" points="413,202.9 407.5,228.2 457,227"></polygon>
  <polygon class="js44" points="464,214.6 413,202.9 457,227"></polygon>
  <polygon class="js45" points="459.3,234.1 411.4,251.3 466.9,240.2"></polygon>
  <polygon class="js46" points="407.5,228.2 411.4,251.3 459.3,234.1"></polygon>
  <polygon class="js47" points="428.7,183.7 413,202.9 464,214.6"></polygon>
  <polygon class="js48" points="457,227 407.5,228.2 459.3,234.1"></polygon>
  <polygon class="js49" points="411.4,251.3 423,268 466.9,240.2"></polygon>
  <polygon class="js50" points="507,213.2 483.1,167.3 482.5,210.8"></polygon>
  <polygon class="js51" points="482.5,210.8 428.7,183.7 464,214.6"></polygon>
  <polygon class="js52" points="533.8,224.9 518.7,170.6 507,213.2"></polygon>
  <polygon class="js53" points="452.7,171.5 428.7,183.7 482.5,210.8"></polygon>
  <polygon class="js54" points="483.1,167.3 452.7,171.5 482.5,210.8"></polygon>
</g>

<g class="svg-css">
  <polygon class="css1" points="246.3,215.3 218.7,184.6 233.6,217.1"></polygon>
  <polygon class="css2" points="303.5,199.3 277.1,185.2 285.2,228.5"></polygon>
  <polygon class="css3" points="266.2,218.2 245.2,180.8 246.3,215.3"></polygon>
  <polygon class="css4" points="285.2,228.5 277.1,185.2 266.2,218.2"></polygon>
  <polygon class="css5" points="277.1,185.2 245.2,180.8 266.2,218.2"></polygon>
  <polygon class="css6" points="233.6,217.1 218.7,184.6 222.3,223"></polygon>
  <polygon class="css7" points="245.2,180.8 218.7,184.6 246.3,215.3"></polygon>
  <polygon class="css8" points="222.3,223 195.6,196.2 214.1,233.8"></polygon>
  <polygon class="css9" points="179.3,215.4 173.1,242.1 210.9,249.8"></polygon>
  <polygon class="css10" points="173.1,313.3 210.9,305.3 210.9,249.8"></polygon>
  <polygon class="css11" points="173.1,242.1 173.1,313.3 210.9,249.8"></polygon>
  <polygon class="css12" points="214.1,233.8 179.3,215.4 210.9,249.8"></polygon>
  <polygon class="css13" points="195.6,196.2 179.3,215.4 214.1,233.8"></polygon>
  <polygon class="css14" points="218.7,184.6 195.6,196.2 222.3,223"></polygon>
  <polygon class="css15" points="277.8,369.7 246.3,339.8 245.7,374.6"></polygon>
  <polygon class="css16" points="265.8,337.1 246.3,339.8 277.8,369.7"></polygon>
  <polygon class="css17" points="246.3,339.8 233.7,337.9 245.7,374.6"></polygon>
  <polygon class="css18" points="179.5,340.3 210.9,305.3 173.1,313.3"></polygon>
  <polygon class="css19" points="303.5,355.9 265.8,337.1 277.8,369.7"></polygon>
  <polygon class="css20" points="245.7,374.6 233.7,337.9 219.2,370.8"></polygon>
  <polygon class="css21" points="285.5,326.6 265.8,337.1 303.5,355.9"></polygon>
  <polygon class="css22" points="222.4,331.8 214.1,321.2 196,359.3"></polygon>
  <polygon class="css23" points="196,359.3 214.1,321.2 179.5,340.3"></polygon>
  <polygon class="css24" points="219.2,370.8 222.4,331.8 196,359.3"></polygon>
  <polygon class="css25" points="214.1,321.2 210.9,305.3 179.5,340.3"></polygon>
  <polygon class="css26" points="233.7,337.9 222.4,331.8 219.2,370.8"></polygon>
  <polygon class="css27" points="374.9,218.5 345.2,195.3 368,225.4"></polygon>
  <polygon class="css28" points="365.5,183.4 345.2,195.3 374.9,218.5"></polygon>
  <polygon class="css29" points="365.3,235.4 327.5,236.3 368.2,245.2"></polygon>
  <polygon class="css30" points="345.2,195.3 332.2,213.3 368,225.4"></polygon>
  <polygon class="css31" points="332.2,213.3 327.5,236.3 365.3,235.4"></polygon>
  <polygon class="css32" points="368.2,245.2 344.3,273.1 376.7,252.1"></polygon>
  <polygon class="css33" points="344.3,273.1 362.2,283.4 376.7,252.1"></polygon>
  <polygon class="css34" points="327.5,236.3 332.1,257.9 368.2,245.2"></polygon>
  <polygon class="css35" points="332.1,257.9 344.3,273.1 368.2,245.2"></polygon>
  <polygon class="css36" points="368,225.4 332.2,213.3 365.3,235.4"></polygon>
  <polygon class="css37" points="444.1,227.2 426.9,182.4 418.9,216.1"></polygon>
  <polygon class="css38" points="427.8,318 468.1,317.7 424.6,307.5"></polygon>
  <polygon class="css39" points="460.6,196.8 426.9,182.4 444.1,227.2"></polygon>
  <polygon class="css40" points="376.7,252.1 362.2,283.4 390.1,257.3"></polygon>
  <polygon class="css41" points="426.9,182.4 392.1,179.1 418.9,216.1"></polygon>
  <polygon class="css42" points="392.1,179.1 365.5,183.4 384.5,214.4"></polygon>
  <polygon class="css43" points="426,326.2 468.1,317.7 427.8,318"></polygon>
  <polygon class="css44" points="384.5,214.4 365.5,183.4 374.9,218.5"></polygon>
  <polygon class="css45" points="418.9,216.1 392.1,179.1 395.4,213.1"></polygon>
  <polygon class="css46" points="395.4,213.1 392.1,179.1 384.5,214.4"></polygon>
  <polygon class="css47" points="394.6,340.1 395.4,374.1 410.1,338.3"></polygon>
  <polygon class="css48" points="395.4,374.1 424.2,370.5 410.1,338.3"></polygon>
  <polygon class="css49" points="410.1,338.3 424.2,370.5 420.3,333.4"></polygon>
  <polygon class="css50" points="424.2,370.5 447.2,359.9 420.3,333.4"></polygon>
  <polygon class="css51" points="356.5,368.3 395.4,374.1 394.6,340.1"></polygon>
  <polygon class="css52" points="420.3,333.4 447.2,359.9 426,326.2"></polygon>
  <polygon class="css53" points="320.9,347.9 356.5,368.3 368,335"></polygon>
  <polygon class="css54" points="342.1,320.2 320.9,347.9 368,335"></polygon>
  <polygon class="css55" points="362.2,283.4 383.3,290.1 390.1,257.3"></polygon>
  <polygon class="css56" points="368,335 356.5,368.3 394.6,340.1"></polygon>
  <polygon class="css57" points="408,261.7 415.5,300.5 453.1,281.8"></polygon>
  <polygon class="css58" points="401.4,295.2 415.5,300.5 408,261.7"></polygon>
  <polygon class="css59" points="383.3,290.1 401.4,295.2 408,261.7"></polygon>
  <polygon class="css60" points="390.1,257.3 383.3,290.1 408,261.7"></polygon>
  <polygon class="css61" points="447.2,359.9 462.6,342.2 426,326.2"></polygon>
  <polygon class="css62" points="462.6,342.2 468.1,317.7 426,326.2"></polygon>
  <polygon class="css63" points="424.6,307.5 468.1,317.7 453.1,281.8"></polygon>
  <polygon class="css64" points="415.5,300.5 424.6,307.5 453.1,281.8"></polygon>
  <polygon class="css65" points="527.6,283.4 548.7,290.1 555.6,257.3"></polygon>
  <polygon class="css66" points="509.8,273.1 527.6,283.4 542.1,252.1"></polygon>
  <polygon class="css67" points="533.7,245.2 509.8,273.1 542.1,252.1"></polygon>
  <polygon class="css68" points="497.5,257.9 509.8,273.1 533.7,245.2"></polygon>
  <polygon class="css69" points="542.1,252.1 527.6,283.4 555.6,257.3"></polygon>
  <polygon class="css70" points="530.8,235.4 497.5,257.9 533.7,245.2"></polygon>
  <polygon class="css71" points="533.4,225.4 492.9,236.3 530.8,235.4"></polygon>
  <polygon class="css72" points="555.6,257.3 548.7,290.1 573.4,261.7"></polygon>
  <polygon class="css73" points="497.6,213.3 492.9,236.3 533.4,225.4"></polygon>
  <polygon class="css74" points="540.3,218.5 497.6,213.3 533.4,225.4"></polygon>
  <polygon class="css75" points="492.9,236.3 497.5,257.9 530.8,235.4"></polygon>
  <polygon class="css76" points="590,307.5 593.2,318 633.5,317.7"></polygon>
  <polygon class="css77" points="593.2,318 591.4,326.2 633.5,317.7"></polygon>
  <polygon class="css78" points="548.7,290.1 566.8,295.2 573.4,261.7"></polygon>
  <polygon class="css79" points="618.6,281.8 590,307.5 633.5,317.7"></polygon>
  <polygon class="css80" points="591.4,326.2 628,342.2 633.5,317.7"></polygon>
  <polygon class="css81" points="573.4,261.7 566.8,295.2 618.6,281.8"></polygon>
  <polygon class="css82" points="566.8,295.2 580.9,300.5 618.6,281.8"></polygon>
  <polygon class="css83" points="580.9,300.5 590,307.5 618.6,281.8"></polygon>
  <polygon class="css84" points="584.4,216.1 557.6,179.1 560.9,213.1"></polygon>
  <polygon class="css85" points="589.6,370.5 612.7,359.9 585.7,333.4"></polygon>
  <polygon class="css86" points="560.9,374.1 589.6,370.5 575.5,338.3"></polygon>
  <polygon class="css87" points="575.5,338.3 589.6,370.5 585.7,333.4"></polygon>
  <polygon class="css88" points="585.7,333.4 612.7,359.9 591.4,326.2"></polygon>
  <polygon class="css89" points="521.9,368.3 560.9,374.1 560.1,340.1"></polygon>
  <polygon class="css90" points="533.4,335 521.9,368.3 560.1,340.1"></polygon>
  <polygon class="css91" points="486.3,347.9 521.9,368.3 533.4,335"></polygon>
  <polygon class="css92" points="612.7,359.9 628,342.2 591.4,326.2"></polygon>
  <polygon class="css93" points="510.6,195.3 497.6,213.3 540.3,218.5"></polygon>
  <polygon class="css94" points="560.1,340.1 560.9,374.1 575.5,338.3"></polygon>
  <polygon class="css95" points="560.9,213.1 531,183.4 550,214.4"></polygon>
  <polygon class="css96" points="626.1,196.8 592.4,182.4 609.5,227.2"></polygon>
  <polygon class="css97" points="531,183.4 510.6,195.3 550,214.4"></polygon>
  <polygon class="css98" points="550,214.4 510.6,195.3 540.3,218.5"></polygon>
  <polygon class="css99" points="557.6,179.1 531,183.4 560.9,213.1"></polygon>
  <polygon class="css100" points="507.6,320.2 486.3,347.9 533.4,335"></polygon>
  <polygon class="css101" points="609.5,227.2 592.4,182.4 584.4,216.1"></polygon>
  <polygon class="css102" points="592.4,182.4 557.6,179.1 584.4,216.1"></polygon>
</g>
</svg>