<svg xmlns="http://www.w3.org/2000/svg" xmlns:xlink="http://www.w3.org/1999/xlink" x="0px" y="0px"
   viewBox="0 0 800 600" enable-background="new 0 0 800 600" xml:space="preserve">
<g class="g1">
  <polygon points="246.3,215.3 218.7,184.6 233.6,217.1"></polygon>
</g>
<g class="g2">
  <polygon points="303.5,199.3 277.1,185.2 285.2,228.5"></polygon>
</g>
<g class="g3">
  <polygon points="266.2,218.2 245.2,180.8 246.3,215.3"></polygon>
</g>
<g class="g4">
  <polygon points="285.2,228.5 277.1,185.2 266.2,218.2"></polygon>
</g>
<g class="g5">
  <polygon points="277.1,185.2 245.2,180.8 266.2,218.2"></polygon>
</g>
<g class="g6">
  <polygon points="233.6,217.1 218.7,184.6 222.3,223"></polygon>
</g>
<g class="g7">
  <polygon points="245.2,180.8 218.7,184.6 246.3,215.3"></polygon>
</g>
<g class="g8">
  <polygon points="222.3,223 195.6,196.2 214.1,233.8"></polygon>
</g>
<g class="g9">
  <polygon points="179.3,215.4 173.1,242.1 210.9,249.8"></polygon>
</g>
<g class="g10">
  <polygon points="173.1,313.3 210.9,305.3 210.9,249.8"></polygon>
</g>
<g class="g11">
  <polygon points="173.1,242.1 173.1,313.3 210.9,249.8"></polygon>
</g>
<g class="g12">
  <polygon points="214.1,233.8 179.3,215.4 210.9,249.8"></polygon>
</g>
<g class="g13">
  <polygon points="195.6,196.2 179.3,215.4 214.1,233.8"></polygon>
</g>
<g class="g14">
  <polygon points="218.7,184.6 195.6,196.2 222.3,223"></polygon>
</g>
<g class="g15">
  <polygon points="277.8,369.7 246.3,339.8 245.7,374.6"></polygon>
</g>
<g class="g16">
  <polygon points="265.8,337.1 246.3,339.8 277.8,369.7"></polygon>
</g>
<g class="g17">
  <polygon points="246.3,339.8 233.7,337.9 245.7,374.6"></polygon>
</g>
<g class="g18">
  <polygon points="179.5,340.3 210.9,305.3 173.1,313.3"></polygon>
</g>
<g class="g19">
  <polygon points="303.5,355.9 265.8,337.1 277.8,369.7"></polygon>
</g>
<g class="g20">
  <polygon points="245.7,374.6 233.7,337.9 219.2,370.8"></polygon>
</g>
<g class="g21">
  <polygon points="285.5,326.6 265.8,337.1 303.5,355.9"></polygon>
</g>
<g class="g22">
  <polygon points="222.4,331.8 214.1,321.2 196,359.3"></polygon>
</g>
<g class="g23">
  <polygon points="196,359.3 214.1,321.2 179.5,340.3"></polygon>
</g>
<g class="g24">
  <polygon points="219.2,370.8 222.4,331.8 196,359.3"></polygon>
</g>
<g class="g25">
  <polygon points="214.1,321.2 210.9,305.3 179.5,340.3"></polygon>
</g>
<g class="g26">
  <polygon points="233.7,337.9 222.4,331.8 219.2,370.8"></polygon>
</g>
<g class="g27">
  <polygon points="374.9,218.5 345.2,195.3 368,225.4"></polygon>
</g>
<g class="g28">
  <polygon points="365.5,183.4 345.2,195.3 374.9,218.5"></polygon>
</g>
<g class="g29">
  <polygon points="365.3,235.4 327.5,236.3 368.2,245.2"></polygon>
</g>
<g class="g30">
  <polygon points="345.2,195.3 332.2,213.3 368,225.4"></polygon>
</g>
<g class="g31">
  <polygon points="332.2,213.3 327.5,236.3 365.3,235.4"></polygon>
</g>
<g class="g32">
  <polygon points="368.2,245.2 344.3,273.1 376.7,252.1"></polygon>
</g>
<g class="g33">
  <polygon points="344.3,273.1 362.2,283.4 376.7,252.1"></polygon>
</g>
<g class="g34">
  <polygon points="327.5,236.3 332.1,257.9 368.2,245.2"></polygon>
</g>
<g class="g35">
  <polygon points="332.1,257.9 344.3,273.1 368.2,245.2"></polygon>
</g>
<g class="g36">
  <polygon points="368,225.4 332.2,213.3 365.3,235.4"></polygon>
</g>
<g class="g37">
  <polygon points="444.1,227.2 426.9,182.4 418.9,216.1"></polygon>
</g>
<g class="g38">
  <polygon points="427.8,318 468.1,317.7 424.6,307.5"></polygon>
</g>
<g class="g39">
  <polygon points="460.6,196.8 426.9,182.4 444.1,227.2"></polygon>
</g>
<g class="g40">
  <polygon points="376.7,252.1 362.2,283.4 390.1,257.3"></polygon>
</g>
<g class="g41">
  <polygon points="426.9,182.4 392.1,179.1 418.9,216.1"></polygon>
</g>
<g class="g42">
  <polygon points="392.1,179.1 365.5,183.4 384.5,214.4"></polygon>
</g>
<g class="g43">
  <polygon points="426,326.2 468.1,317.7 427.8,318"></polygon>
</g>
<g class="g44">
  <polygon points="384.5,214.4 365.5,183.4 374.9,218.5"></polygon>
</g>
<g class="g45">
  <polygon points="418.9,216.1 392.1,179.1 395.4,213.1"></polygon>
</g>
<g class="g46">
  <polygon points="395.4,213.1 392.1,179.1 384.5,214.4"></polygon>
</g>
<g class="g47">
  <polygon points="394.6,340.1 395.4,374.1 410.1,338.3"></polygon>
</g>
<g class="g48">
  <polygon points="395.4,374.1 424.2,370.5 410.1,338.3"></polygon>
</g>
<g class="g49">
  <polygon points="410.1,338.3 424.2,370.5 420.3,333.4"></polygon>
</g>
<g class="g50">
  <polygon points="424.2,370.5 447.2,359.9 420.3,333.4"></polygon>
</g>
<g class="g51">
  <polygon points="356.5,368.3 395.4,374.1 394.6,340.1"></polygon>
</g>
<g class="g52">
  <polygon points="420.3,333.4 447.2,359.9 426,326.2"></polygon>
</g>
<g class="g53">
  <polygon points="320.9,347.9 356.5,368.3 368,335"></polygon>
</g>
<g class="g54">
  <polygon points="342.1,320.2 320.9,347.9 368,335"></polygon>
</g>
<g class="g55">
  <polygon points="362.2,283.4 383.3,290.1 390.1,257.3"></polygon>
</g>
<g class="g56">
  <polygon points="368,335 356.5,368.3 394.6,340.1"></polygon>
</g>
<g class="g57">
  <polygon points="408,261.7 415.5,300.5 453.1,281.8"></polygon>
</g>
<g class="g58">
  <polygon points="401.4,295.2 415.5,300.5 408,261.7"></polygon>
</g>
<g class="g59">
  <polygon points="383.3,290.1 401.4,295.2 408,261.7"></polygon>
</g>
<g class="g60">
  <polygon points="390.1,257.3 383.3,290.1 408,261.7"></polygon>
</g>
<g class="g61">
  <polygon points="447.2,359.9 462.6,342.2 426,326.2"></polygon>
</g>
<g class="g62">
  <polygon points="462.6,342.2 468.1,317.7 426,326.2"></polygon>
</g>
<g class="g63">
  <polygon points="424.6,307.5 468.1,317.7 453.1,281.8"></polygon>
</g>
<g class="g64">
  <polygon points="415.5,300.5 424.6,307.5 453.1,281.8"></polygon>
</g>
<g class="g65">
  <polygon points="527.6,283.4 548.7,290.1 555.6,257.3"></polygon>
</g>
<g class="g66">
  <polygon points="509.8,273.1 527.6,283.4 542.1,252.1"></polygon>
</g>
<g class="g67">
  <polygon points="533.7,245.2 509.8,273.1 542.1,252.1"></polygon>
</g>
<g class="g68">
  <polygon points="497.5,257.9 509.8,273.1 533.7,245.2"></polygon>
</g>
<g class="g69">
  <polygon points="542.1,252.1 527.6,283.4 555.6,257.3"></polygon>
</g>
<g class="g70">
  <polygon points="530.8,235.4 497.5,257.9 533.7,245.2"></polygon>
</g>
<g class="g71">
  <polygon points="533.4,225.4 492.9,236.3 530.8,235.4"></polygon>
</g>
<g class="g72">
  <polygon points="555.6,257.3 548.7,290.1 573.4,261.7"></polygon>
</g>
<g class="g73">
  <polygon points="497.6,213.3 492.9,236.3 533.4,225.4"></polygon>
</g>
<g class="g74">
  <polygon points="540.3,218.5 497.6,213.3 533.4,225.4"></polygon>
</g>
<g class="g75">
  <polygon points="492.9,236.3 497.5,257.9 530.8,235.4"></polygon>
</g>
<g class="g76">
  <polygon points="590,307.5 593.2,318 633.5,317.7"></polygon>
</g>
<g class="g77">
  <polygon points="593.2,318 591.4,326.2 633.5,317.7"></polygon>
</g>
<g class="g78">
  <polygon points="548.7,290.1 566.8,295.2 573.4,261.7"></polygon>
</g>
<g class="g79">
  <polygon points="618.6,281.8 590,307.5 633.5,317.7"></polygon>
</g>
<g class="g80">
  <polygon points="591.4,326.2 628,342.2 633.5,317.7"></polygon>
</g>
<g class="g81">
  <polygon points="573.4,261.7 566.8,295.2 618.6,281.8"></polygon>
</g>
<g class="g82">
  <polygon points="566.8,295.2 580.9,300.5 618.6,281.8"></polygon>
</g>
<g class="g83">
  <polygon points="580.9,300.5 590,307.5 618.6,281.8"></polygon>
</g>
<g class="g84">
  <polygon points="584.4,216.1 557.6,179.1 560.9,213.1"></polygon>
</g>
<g class="g85">
  <polygon points="589.6,370.5 612.7,359.9 585.7,333.4"></polygon>
</g>
<g class="g86">
  <polygon points="560.9,374.1 589.6,370.5 575.5,338.3"></polygon>
</g>
<g class="g87">
  <polygon points="575.5,338.3 589.6,370.5 585.7,333.4"></polygon>
</g>
<g class="g88">
  <polygon points="585.7,333.4 612.7,359.9 591.4,326.2"></polygon>
</g>
<g class="g89">
  <polygon points="521.9,368.3 560.9,374.1 560.1,340.1"></polygon>
</g>
<g class="g90">
  <polygon points="533.4,335 521.9,368.3 560.1,340.1"></polygon>
</g>
<g class="g91">
  <polygon points="486.3,347.9 521.9,368.3 533.4,335"></polygon>
</g>
<g class="g92">
  <polygon points="612.7,359.9 628,342.2 591.4,326.2"></polygon>
</g>
<g class="g93">
  <polygon points="510.6,195.3 497.6,213.3 540.3,218.5"></polygon>
</g>
<g class="g94">
  <polygon points="560.1,340.1 560.9,374.1 575.5,338.3"></polygon>
</g>
<g class="g95">
  <polygon points="560.9,213.1 531,183.4 550,214.4"></polygon>
</g>
<g class="g96">
  <polygon points="626.1,196.8 592.4,182.4 609.5,227.2"></polygon>
</g>
<g class="g97">
  <polygon points="531,183.4 510.6,195.3 550,214.4"></polygon>
</g>
<g class="g98">
  <polygon points="550,214.4 510.6,195.3 540.3,218.5"></polygon>
</g>
<g class="g99">
  <polygon points="557.6,179.1 531,183.4 560.9,213.1"></polygon>
</g>
<g class="g100">
  <polygon points="507.6,320.2 486.3,347.9 533.4,335"></polygon>
</g>
<g class="g101">
  <polygon points="609.5,227.2 592.4,182.4 584.4,216.1"></polygon>
</g>
<g class="g102">
  <polygon points="592.4,182.4 557.6,179.1 584.4,216.1"></polygon>
</g>
</svg>
