<svg class="svg-js" viewBox="0 0 800 600" xml:space="preserve">
<g class="g1">
  <polygon points="344.6,362 361.5,341.6 310.8,327.5"></polygon>
</g>
<g class="g2">
  <polygon points="300.4,333.1 344.6,362 310.8,327.5"></polygon>
</g>
<g class="g3">
  <polygon points="310.8,327.5 361.5,341.6 317.7,317"></polygon>
</g>
<g class="g4">
  <polygon points="287.2,334.7 293.2,377.9 300.4,333.1"></polygon>
</g>
<g class="g5">
  <polygon points="293.2,377.9 320.8,374 300.4,333.1"></polygon>
</g>
<g class="g6">
  <polygon points="226.3,357.2 256.5,372.8 248.5,320.6"></polygon>
</g>
<g class="g7">
  <polygon points="248.5,320.6 256.5,372.8 268.6,331.7"></polygon>
</g>
<g class="g8">
  <polygon points="268.6,331.7 256.5,372.8 287.2,334.7"></polygon>
</g>
<g class="g9">
  <polygon points="256.5,372.8 293.2,377.9 287.2,334.7"></polygon>
</g>
<g class="g10">
  <polygon points="320.8,374 344.6,362 300.4,333.1"></polygon>
</g>
<g class="g11">
  <polygon points="367.9,312.2 367.9,169.4 320.2,300.5"></polygon>
</g>
<g class="g12">
  <polygon points="361.5,341.6 367.9,312.2 317.7,317"></polygon>
</g>
<g class="g13">
  <polygon points="320.2,300.5 367.9,169.4 320.2,169.4"></polygon>
</g>
<g class="g14">
  <polygon points="317.7,317 367.9,312.2 320.2,300.5"></polygon>
</g>
<g class="g15">
  <polygon points="423,268 441.7,280 481,246.1"></polygon>
</g>
<g class="g16">
  <polygon points="466.9,240.2 423,268 481,246.1"></polygon>
</g>
<g class="g17">
  <polygon points="467.2,288.8 489.3,295.4 534.1,264.7"></polygon>
</g>
<g class="g18">
  <polygon points="478.9,334.7 512.4,373.7 495.4,332.9"></polygon>
</g>
<g class="g19">
  <polygon points="480.4,377.6 512.4,373.7 478.9,334.7"></polygon>
</g>
<g class="g20">
  <polygon points="512.4,373.7 538.8,362 495.4,332.9"></polygon>
</g>
<g class="g21">
  <polygon points="552.5,279.4 489.3,295.4 561.1,296.5"></polygon>
</g>
<g class="g22">
  <polygon points="495.4,332.9 538.8,362 506,328.3"></polygon>
</g>
<g class="g23">
  <polygon points="452,329.8 458.4,376.4 478.9,334.7"></polygon>
</g>
<g class="g24">
  <polygon points="425.5,314.3 418.2,363.4 452,329.8"></polygon>
</g>
<g class="g25">
  <polygon points="398.8,349.4 418.2,363.4 425.5,314.3"></polygon>
</g>
<g class="g26">
  <polygon points="437.8,372.1 458.4,376.4 452,329.8"></polygon>
</g>
<g class="g27">
  <polygon points="538.8,362 556.6,342.7 506,328.3"></polygon>
</g>
<g class="g28">
  <polygon points="418.2,363.4 437.8,372.1 452,329.8"></polygon>
</g>
<g class="g29">
  <polygon points="458.4,376.4 480.4,377.6 478.9,334.7"></polygon>
</g>
<g class="g30">
  <polygon points="511.8,322.1 556.6,342.7 563.2,315.5"></polygon>
</g>
<g class="g31">
  <polygon points="506,328.3 556.6,342.7 511.8,322.1"></polygon>
</g>
<g class="g32">
  <polygon points="561.1,296.5 511.2,307.9 563.2,315.5"></polygon>
</g>
<g class="g33">
  <polygon points="511.2,307.9 513.4,315.8 563.2,315.5"></polygon>
</g>
<g class="g34">
  <polygon points="513.4,315.8 511.8,322.1 563.2,315.5"></polygon>
</g>
<g class="g35">
  <polygon points="503.5,301.4 511.2,307.9 561.1,296.5"></polygon>
</g>
<g class="g36">
  <polygon points="489.3,295.4 503.5,301.4 561.1,296.5"></polygon>
</g>
<g class="g37">
  <polygon points="441.7,280 467.2,288.8 502.3,252.5"></polygon>
</g>
<g class="g38">
  <polygon points="502.3,252.5 467.2,288.8 534.1,264.7"></polygon>
</g>
<g class="g39">
  <polygon points="481,246.1 441.7,280 502.3,252.5"></polygon>
</g>
<g class="g40">
  <polygon points="534.1,264.7 489.3,295.4 552.5,279.4"></polygon>
</g>
<g class="g41">
  <polygon points="518.7,170.6 483.1,167.3 507,213.2"></polygon>
</g>
<g class="g42">
  <polygon points="555.1,186.5 518.7,170.6 533.8,224.9"></polygon>
</g>
<g class="g43">
  <polygon points="413,202.9 407.5,228.2 457,227"></polygon>
</g>
<g class="g44">
  <polygon points="464,214.6 413,202.9 457,227"></polygon>
</g>
<g class="g45">
  <polygon points="459.3,234.1 411.4,251.3 466.9,240.2"></polygon>
</g>
<g class="g46">
  <polygon points="407.5,228.2 411.4,251.3 459.3,234.1"></polygon>
</g>
<g class="g47">
  <polygon points="428.7,183.7 413,202.9 464,214.6"></polygon>
</g>
<g class="g48">
  <polygon points="457,227 407.5,228.2 459.3,234.1"></polygon>
</g>
<g class="g49">
  <polygon points="411.4,251.3 423,268 466.9,240.2"></polygon>
</g>
<g class="g50">
  <polygon points="507,213.2 483.1,167.3 482.5,210.8"></polygon>
</g>
<g class="g51">
  <polygon points="482.5,210.8 428.7,183.7 464,214.6"></polygon>
</g>
<g class="g52">
  <polygon points="533.8,224.9 518.7,170.6 507,213.2"></polygon>
</g>
<g class="g53">
  <polygon points="452.7,171.5 428.7,183.7 482.5,210.8"></polygon>
</g>
<g class="g54">
  <polygon points="483.1,167.3 452.7,171.5 482.5,210.8"></polygon>
</g>
</svg>
